<?xml version="1.0" encoding="iso-8859-1"?>
<!-- Generator: Adobe Illustrator 18.1.1, SVG Export Plug-In . SVG Version: 6.00 Build 0)  -->
<svg version="1.1" id="Capa_1" xmlns="http://www.w3.org/2000/svg" xmlns:xlink="http://www.w3.org/1999/xlink" x="0px" y="0px"
	 width="60px" height="60px" viewBox="0 0 59.74 59.74" style="enable-background:new 0 0 59.74 59.74;" xml:space="preserve">
<g>
	<g>
		<path style="fill:#3c3c3c;" d="M32.325,15.919c-0.11-0.044-0.2-0.112-0.287-0.179c-0.172-0.138-0.345-0.292-0.544-0.466
			c-0.096-0.091-0.217-0.165-0.384-0.219c-0.168-0.054-0.883-0.146-1.072-0.023c-0.188-0.122-0.903-0.031-1.071,0.023
			c-0.167,0.054-0.288,0.128-0.383,0.219c-0.199,0.174-0.374,0.328-0.544,0.466c-0.087,0.067-0.178,0.135-0.287,0.179
			c-0.107,0.048-0.234,0.075-0.373,0.07c-0.14,0-0.283-0.04-0.428-0.095c-0.146-0.056-0.295-0.12-0.479-0.173
			c0.041,0.187,0.135,0.345,0.256,0.48c0.121,0.137,0.265,0.262,0.435,0.375c0.17,0.11,0.37,0.2,0.591,0.248
			c0.22,0.044,0.457,0.048,0.679,0.002c0.448-0.086,0.812-0.338,1.077-0.625c0.136-0.143,0.324-0.526,0.324-0.526
			s0.202-0.476,0.204-0.641c0.001,0.165,0.204,0.641,0.204,0.641s0.19,0.383,0.325,0.526c0.265,0.287,0.63,0.539,1.078,0.625
			c0.221,0.045,0.458,0.042,0.678-0.002c0.221-0.047,0.422-0.138,0.592-0.248c0.168-0.113,0.312-0.238,0.436-0.375
			c0.119-0.135,0.215-0.294,0.254-0.48c-0.184,0.053-0.332,0.117-0.479,0.173c-0.145,0.055-0.288,0.095-0.428,0.095
			C32.558,15.994,32.432,15.967,32.325,15.919z"/>
		<path style="fill:#3c3c3c;" d="M29.563,3.231l-0.152,0.152c-0.235-0.039-0.469-0.058-0.691-0.058c-2.459,0-4.459,2-4.459,4.458
			c0,1.115,0.424,2.152,1.124,2.943c0.063,0.52,0.237,0.989,0.49,1.364v2.219h8.327V12.09c0.251-0.372,0.425-0.836,0.487-1.352
			c0.707-0.792,1.127-1.833,1.127-2.955c0-2.459-2-4.458-4.459-4.458c-0.223,0-0.458,0.02-0.696,0.058L30.51,3.231
			c-0.002-0.002-0.005-0.005-0.007-0.006V2.314h0.895v-0.93h-0.895V0.528h-0.928v0.856h-0.9v0.93h0.9V3.22
			C29.571,3.224,29.567,3.228,29.563,3.231z M30.51,4.507l0.165-0.165c0.091-0.09,0.152-0.205,0.179-0.332
			c0.17-0.023,0.339-0.035,0.504-0.035c0.088,0,0.173,0.007,0.258,0.014v0.354h1.364c1.289,0.611,2.186,1.921,2.186,3.44
			c0,0.676-0.184,1.32-0.502,1.879C34.449,8.48,33.653,7.601,32.7,7.601c-0.718,0-1.346,0.499-1.704,1.25
			c-0.305-0.101-0.584-0.114-0.77-0.101V4.667h-0.001C30.33,4.639,30.43,4.586,30.51,4.507z M30.077,9.144c0,0,0.001,0,0.002,0
			c0.021-0.005,0.363-0.075,0.775,0.055c-0.113,0.334-0.176,0.703-0.176,1.094c0,1.487,0.904,2.693,2.02,2.693
			c0.175,0,0.341-0.033,0.502-0.087v0.408h-6.326v-0.408c0.162,0.054,0.328,0.087,0.502,0.087c1.116,0,2.02-1.206,2.02-2.693
			c0-0.391-0.063-0.76-0.176-1.094c0.413-0.13,0.753-0.06,0.775-0.055C30.023,9.15,30.051,9.15,30.077,9.144z M29.851,4.668v4.083
			c-0.186-0.013-0.465,0-0.771,0.101c-0.358-0.752-0.986-1.25-1.704-1.25c-0.951,0-1.745,0.875-1.961,2.053
			c-0.321-0.558-0.504-1.198-0.504-1.872c0-1.68,1.095-3.107,2.607-3.611c-0.085,0.054-0.17,0.108-0.249,0.17h1.508V3.98
			c0.145,0.002,0.292,0.01,0.439,0.03c0.027,0.125,0.09,0.24,0.179,0.332l0.166,0.165C29.644,4.587,29.744,4.639,29.851,4.668z"/>
		<path style="fill:#3c3c3c;" d="M45.779,46.407c-0.209-0.858-1.717-2.159-2.004-2.366c-2.289-1.651-4.469-3.432-6.564-5.311V28.581
			c3.987,3.006,8.021,5.954,12.077,8.86c2.772,1.984,5.401-2.593,2.663-4.555c-5.602-4.009-11.182-8.078-16.605-12.321
			c-0.117-0.092-2.641-2.198-5.252-2.198c-2.612,0-5.531,2.235-5.82,2.461c-5.425,4.244-11.006,8.313-16.605,12.322
			c-2.738,1.961-0.109,6.538,2.662,4.555c4.248-3.041,8.474-6.129,12.644-9.286v10.499c0,0.42,0.043,0.828,0.113,1.229
			c-1.696,1.456-3.448,2.848-5.267,4.16c-0.287,0.205-1.794,1.506-2.003,2.365c-0.783,3.219-1.304,6.487-1.846,9.756
			c-0.551,3.324,4.53,4.75,5.085,1.402c0.511-3.078,1.011-6.156,1.719-9.193c1.751-1.271,3.458-2.069,5.115-3.453
			c5.482-4.666,9.002-0.733,9.002-0.733s3.98,2.509,5.93,3.925c0.709,3.037,1.209,6.113,1.719,9.191
			c0.557,3.35,5.637,1.923,5.085-1.402C47.083,52.895,46.56,49.627,45.779,46.407z M20.773,26.348c0,0,6.022-6.7,9.573-6.4
			c3.55,0.3,8.99,6.4,8.99,6.4H20.773z"/>
		<path style="fill:#3c3c3c;" d="M22.694,13.001h2.108v-2.003c-0.128-0.24-0.226-0.502-0.307-0.771h-1.801V4.343h0.864
			c0.242-0.638,0.596-1.22,1.038-1.726H22.6V1.492C22.6,0.669,21.932,0,21.108,0c-0.824,0-1.492,0.669-1.492,1.492v1.125v7.609
			v0.609v1.498v9.216c1.024-0.776,2.052-1.566,3.078-2.361C22.694,19.188,22.694,13.001,22.694,13.001z"/>
		<path style="fill:#3c3c3c;" d="M44.35,42.535c0.291,0.211,0.553,0.454,0.776,0.729c0.325,0.186,0.603,0.436,0.849,0.712v-6.373
			c0,0-7.043-5.975-7.682-6.45v6.519C40.331,39.474,42.316,41.07,44.35,42.535z"/>
		<path style="fill:#3c3c3c;" d="M21.901,37.978v-6.21c-0.637,0.476-7.68,5.834-7.68,5.834v6.682
			c0.246-0.276,0.521-0.526,0.847-0.713c0.225-0.274,0.486-0.519,0.779-0.729C17.878,41.377,19.863,39.781,21.901,37.978z"/>
		<path style="fill:#3c3c3c;" d="M40.126,56.134c-0.396-2.396-0.807-4.863-1.348-7.26c-1.741-1.23-4.773-3.143-4.808-3.16
			l-0.127-0.08l-0.101-0.113c-0.032-0.034-0.948-0.999-2.501-0.999c-1.216,0-2.52,0.586-3.877,1.743
			c-0.908,0.759-1.819,1.322-2.701,1.869c-0.499,0.308-1.012,0.625-1.519,0.976c-0.535,2.374-0.942,4.821-1.334,7.192l-0.064,0.389
			c-0.042,0.253-0.115,0.482-0.202,0.706h18.937c-0.137-0.285-0.246-0.595-0.301-0.938L40.126,56.134z"/>
		<path style="fill:#3c3c3c;" d="M37.469,4.343v5.883h-1.57c-0.08,0.269-0.178,0.53-0.307,0.771V13h1.877v6.098
			c1.025,0.795,2.053,1.585,3.076,2.359v-9.125v-1.498v-0.609V2.617V1.492c0-0.823-0.668-1.492-1.49-1.492
			c-0.826,0-1.492,0.669-1.492,1.492v1.125h-1.765c0.442,0.506,0.798,1.088,1.038,1.726H37.469z"/>
		<path style="fill:#3c3c3c;" d="M9.724,38.681c-1.246,0-2.257,0.751-2.257,1.679v18.021h4.514V40.36
			C11.981,39.432,10.971,38.681,9.724,38.681z"/>
		<path style="fill:#3c3c3c;" d="M50.969,38.681c-1.246,0-2.257,0.751-2.257,1.679v18.021h4.515V40.36
			C53.225,39.432,52.217,38.681,50.969,38.681z"/>
		<circle style="fill:#3c3c3c;" cx="24.261" cy="25.009" r="0.5"/>
		<circle style="fill:#3c3c3c;" cx="27.403" cy="23.624" r="0.5"/>
		<circle style="fill:#3c3c3c;" cx="28.809" cy="25.509" r="0.5"/>
		<circle style="fill:#3c3c3c;" cx="30.538" cy="23.624" r="0.5"/>
		<circle style="fill:#3c3c3c;" cx="29.308" cy="21.458" r="0.5"/>
		<circle style="fill:#3c3c3c;" cx="32.603" cy="22.049" r="0.5"/>
		<circle style="fill:#3c3c3c;" cx="36.592" cy="25.509" r="0.5"/>
		<circle style="fill:#3c3c3c;" cx="33.603" cy="24.508" r="0.5"/>
	</g>
</g>
<g>
</g>
<g>
</g>
<g>
</g>
<g>
</g>
<g>
</g>
<g>
</g>
<g>
</g>
<g>
</g>
<g>
</g>
<g>
</g>
<g>
</g>
<g>
</g>
<g>
</g>
<g>
</g>
<g>
</g>
</svg>
